<svg width="253" height="128" viewBox="0 0 253 128" fill="none" xmlns="http://www.w3.org/2000/svg">
<mask id="path-1-outside-1_1157_3175" maskUnits="userSpaceOnUse" x="0" y="0" width="253" height="128" fill="black">
<rect fill="white" width="253" height="128"/>
<path fill-rule="evenodd" clip-rule="evenodd" d="M100.841 6.76536V38.8289H126.22C128.424 38.8289 130.549 38.4148 132.573 37.5624C134.512 36.7466 136.269 35.6296 137.764 34.168C139.25 32.7151 140.396 31.0138 141.237 29.1332C142.123 27.1477 142.531 25.047 142.531 22.8823C142.531 20.7276 142.107 18.6497 141.236 16.672C140.389 14.7519 139.238 13.0091 137.755 11.5028C136.277 10.0021 134.529 8.85544 132.573 8.03214C130.549 7.17974 128.424 6.76536 126.22 6.76536H100.841ZM100.841 43.0765V67.7952H96.4969V2.51807H126.22C129.002 2.51807 131.695 3.03504 134.251 4.10674C136.737 5.14875 138.963 6.59939 140.875 8.46873C142.787 10.3381 144.273 12.5143 145.338 14.945C146.445 17.4717 146.963 20.1378 146.963 22.8823C146.963 25.6026 146.433 28.235 145.338 30.7346C144.276 33.1566 142.792 35.3233 140.871 37.1716C138.954 39.0165 136.725 40.4513 134.251 41.4878C131.695 42.5586 129.002 43.0765 126.22 43.0765H100.841Z"/>
<path fill-rule="evenodd" clip-rule="evenodd" d="M43.3879 6.76536V38.8289H68.7664C70.9703 38.8289 73.0958 38.4148 75.1196 37.5624C77.0585 36.7466 78.8153 35.6296 80.3103 34.168C81.7964 32.7151 82.943 31.0138 83.7837 29.1332C84.67 27.1477 85.077 25.047 85.077 22.8823C85.077 20.7276 84.6532 18.6497 83.7822 16.672C82.9359 14.7519 81.7846 13.0091 80.3014 11.5028C78.8235 10.0021 77.0756 8.85544 75.1196 8.03214C73.0958 7.17974 70.9703 6.76536 68.7664 6.76536H43.3879ZM43.3879 43.0765V67.7952H39.0435V2.51807H68.7664C71.5483 2.51807 74.2415 3.03504 76.7977 4.10674C79.2831 5.14875 81.5099 6.59939 83.422 8.46873C85.3338 10.3381 86.8193 12.5143 87.8843 14.945C88.9914 17.4717 89.5093 20.1378 89.5093 22.8823C89.5093 25.6026 88.9799 28.235 87.8843 30.7346C86.8229 33.1566 85.3388 35.3233 83.4179 37.1716C81.5002 39.0165 79.2716 40.4513 76.7977 41.4878C74.2415 42.5586 71.5483 43.0765 68.7664 43.0765H43.3879Z"/>
<path fill-rule="evenodd" clip-rule="evenodd" d="M208.713 55.5598V37.285H185.685V33.0285H212.957V57.1866L212.791 57.3766C209.561 61.0801 205.657 63.9734 201.183 66.0868C196.521 68.2882 191.542 69.3133 186.372 69.3133C181.687 69.3133 177.146 68.4424 172.847 66.61C168.716 64.8497 164.999 62.4231 161.815 59.2936C158.632 56.1641 156.162 52.51 154.372 48.451C152.507 44.2254 151.621 39.7625 151.621 35.1572C151.621 30.5508 152.507 26.0881 154.372 21.8625C156.162 17.8033 158.632 14.1491 161.815 11.0205C164.999 7.89102 168.717 5.4635 172.847 3.70414C177.146 1.87172 181.687 1 186.372 1C191.059 1 195.6 1.87172 199.899 3.70414C204.071 5.48198 207.802 7.94647 211.017 11.1057L211.503 11.5839L208.445 14.59L207.958 14.1122C205.158 11.3592 201.906 9.21899 198.266 7.67821C194.486 6.07767 190.486 5.34192 186.372 5.34192C182.285 5.34192 178.32 6.08835 174.566 7.67821C170.948 9.21032 167.702 11.3309 164.917 14.0689C162.132 16.8068 159.974 19.9955 158.415 23.5529C156.798 27.2428 156.038 31.1398 156.038 35.1572C156.038 39.1899 156.803 43.0976 158.416 46.8057C159.969 50.3767 162.124 53.5839 164.917 56.3299C167.703 59.0672 170.948 61.189 174.566 62.7214C178.32 64.3109 182.285 65.0574 186.372 65.0574C190.712 65.0574 194.907 64.2428 198.861 62.4705C202.598 60.7963 205.901 58.4944 208.713 55.5598Z"/>
<path d="M2.90302 95.5989V105.248H1V81.9571H9.22449C11.6941 81.9571 13.5916 82.5837 14.9171 83.8369C16.2426 85.0903 16.9053 86.7261 16.9053 88.7447C16.9053 90.7411 16.203 92.3826 14.7982 93.6691C13.3934 94.9556 11.5356 95.5989 9.22449 95.5989H2.90302ZM9.29232 83.6871H2.90302V93.8686H9.29232C11.1278 93.8686 12.5382 93.4029 13.5237 92.4711C14.5093 91.5396 15.002 90.2973 15.002 88.7447C15.002 87.192 14.5093 85.9609 13.5237 85.0512C12.5382 84.1418 11.1278 83.6871 9.29232 83.6871ZM23.0567 95.5989V105.248H21.1537V81.9571H29.3782C31.8478 81.9571 33.7456 82.5837 35.0708 83.8369C36.3963 85.0903 37.0589 86.7261 37.0589 88.7447C37.0589 90.5859 36.4474 92.1385 35.2237 93.4029C34.0004 94.6673 32.3689 95.3882 30.33 95.5655L37.7389 105.248H35.2919L27.9848 95.5989H23.0567ZM29.4463 83.6871H23.0567V93.8686H29.4463C31.2815 93.8686 32.6919 93.4029 33.6774 92.4711C34.663 91.5396 35.1559 90.2973 35.1559 88.7447C35.1559 87.192 34.663 85.9609 33.6774 85.0512C32.6919 84.1418 31.2815 83.6871 29.4463 83.6871ZM41.8511 105.248V81.9571H43.7541V105.248H41.8511ZM51.503 82.0235L60.0674 94.8335L68.6319 82.0235H70.5352V105.248H68.6319V85.0182L60.5774 97.0297H59.5237L51.503 85.0182V105.248H49.6V82.0235H51.503ZM91.8782 103.518V105.248H76.3808V81.9571H91.5382V83.6871H78.2837V92.2716H90.5189V94.0016H78.2837V103.518H91.8782ZM106.73 95.5989V105.248H104.827V81.9571H113.051C115.521 81.9571 117.419 82.5837 118.744 83.8369C120.07 85.0903 120.732 86.7261 120.732 88.7447C120.732 90.7411 120.03 92.3826 118.625 93.6691C117.22 94.9556 115.363 95.5989 113.051 95.5989H106.73ZM113.119 83.6871H106.73V93.8686H113.119C114.955 93.8686 116.365 93.4029 117.351 92.4711C118.336 91.5396 118.829 90.2973 118.829 88.7447C118.829 87.192 118.336 85.9609 117.351 85.0512C116.365 84.1418 114.955 83.6871 113.119 83.6871ZM143.299 86.1658C141.328 84.1806 138.745 83.1881 135.55 83.1881C132.355 83.1881 129.772 84.1806 127.801 86.1658C125.83 88.1514 124.844 90.6302 124.844 93.6024C124.844 96.5971 125.83 99.0813 127.801 101.056C129.772 103.03 132.355 104.017 135.55 104.017C138.745 104.017 141.328 103.03 143.299 101.056C145.27 99.0813 146.256 96.5971 146.256 93.6024C146.256 90.6302 145.27 88.1514 143.299 86.1658ZM144.743 102.303C142.466 104.599 139.402 105.747 135.55 105.747C131.698 105.747 128.634 104.599 126.357 102.303C124.08 100.007 122.941 97.1073 122.941 93.6024C122.941 90.12 124.08 87.2253 126.357 84.9182C128.634 82.6113 131.698 81.4578 135.55 81.4578C139.402 81.4578 142.466 82.6113 144.743 84.9182C147.02 87.2253 148.159 90.12 148.159 93.6024C148.159 97.1073 147.02 100.007 144.743 102.303ZM152.611 105.248V81.9571H154.514V103.518H167.769V105.248H152.611ZM164.37 81.9571H166.477L174.498 94.8335L182.552 81.9571H184.626L175.449 96.6635V105.248H173.546V96.7302L164.37 81.9571ZM189.621 82.0235L198.186 94.8335L206.75 82.0235H208.654V105.248H206.75V85.0182L198.696 97.0297H197.642L189.621 85.0182V105.248H187.718V82.0235H189.621ZM229.997 103.518V105.248H214.499V81.9571H229.657V83.6871H216.402V92.2716H228.637V94.0016H216.402V103.518H229.997ZM236.318 95.5989V105.248H234.415V81.9571H242.639C245.109 81.9571 247.007 82.5837 248.332 83.8369C249.657 85.0903 250.32 86.7261 250.32 88.7447C250.32 90.5859 249.709 92.1385 248.485 93.4029C247.261 94.6673 245.63 95.3882 243.591 95.5655L251 105.248H248.553L241.246 95.5989H236.318ZM242.707 83.6871H236.318V93.8686H242.707C244.543 93.8686 245.953 93.4029 246.939 92.4711C247.924 91.5396 248.417 90.2973 248.417 88.7447C248.417 87.192 247.924 85.9609 246.939 85.0512C245.953 84.1418 244.543 83.6871 242.707 83.6871Z"/>
<path d="M83.3353 121.467V120.548H89.5606V125.25C88.3119 126.417 86.6835 127 84.6759 127C82.5949 127 80.9391 126.39 79.7087 125.17C78.4786 123.951 77.8633 122.41 77.8633 120.548C77.8633 118.698 78.4786 117.16 79.7087 115.935C80.9391 114.709 82.5949 114.096 84.6759 114.096C86.1694 114.096 87.4611 114.426 88.5506 115.086L87.9628 115.917C87.0202 115.316 85.9246 115.016 84.6759 115.016C82.9499 115.016 81.5695 115.54 80.5351 116.589C79.5006 117.637 78.9833 118.957 78.9833 120.548C78.9833 122.139 79.5006 123.459 80.5351 124.508C81.5695 125.556 82.9499 126.081 84.6759 126.081C86.2551 126.081 87.565 125.627 88.6057 124.72V121.467H83.3353ZM101.551 121.609V126.735H100.522V114.362H104.966C106.301 114.362 107.326 114.694 108.042 115.36C108.758 116.026 109.116 116.895 109.116 117.967C109.116 118.945 108.786 119.77 108.125 120.442C107.463 121.114 106.582 121.497 105.48 121.591L109.483 126.735H108.161L104.213 121.609H101.551ZM105.003 115.28H101.551V120.69H105.003C105.994 120.69 106.757 120.442 107.289 119.947C107.822 119.452 108.088 118.792 108.088 117.967C108.088 117.142 107.822 116.488 107.289 116.005C106.757 115.522 105.994 115.28 105.003 115.28ZM130.618 116.598C129.553 115.543 128.158 115.016 126.432 115.016C124.706 115.016 123.31 115.543 122.245 116.598C121.18 117.652 120.647 118.969 120.647 120.548C120.647 122.139 121.18 123.459 122.245 124.508C123.31 125.556 124.706 126.081 126.432 126.081C128.158 126.081 129.553 125.556 130.618 124.508C131.683 123.459 132.216 122.139 132.216 120.548C132.216 118.969 131.683 117.652 130.618 116.598ZM131.399 125.17C130.168 126.39 128.513 127 126.432 127C124.351 127 122.695 126.39 121.464 125.17C120.234 123.951 119.619 122.41 119.619 120.548C119.619 118.698 120.234 117.16 121.464 115.935C122.695 114.709 124.351 114.096 126.432 114.096C128.513 114.096 130.168 114.709 131.399 115.935C132.629 117.16 133.244 118.698 133.244 120.548C133.244 122.41 132.629 123.951 131.399 125.17ZM144.316 122.546V114.362H145.344V122.546C145.344 123.559 145.681 124.402 146.354 125.073C147.028 125.745 147.915 126.081 149.017 126.081C150.119 126.081 151.006 125.745 151.68 125.073C152.353 124.402 152.69 123.559 152.69 122.546V114.362H153.718V122.546C153.718 123.83 153.296 124.894 152.451 125.736C151.606 126.579 150.462 127 149.017 127C147.572 127 146.428 126.579 145.583 125.736C144.738 124.894 144.316 123.83 144.316 122.546ZM166.571 121.609V126.735H165.543V114.362H169.987C171.321 114.362 172.346 114.694 173.062 115.36C173.779 116.026 174.137 116.895 174.137 117.967C174.137 119.028 173.757 119.9 172.998 120.584C172.239 121.267 171.235 121.609 169.987 121.609H166.571ZM170.023 115.28H166.571V120.69H170.023C171.015 120.69 171.777 120.442 172.31 119.947C172.842 119.452 173.108 118.792 173.108 117.967C173.108 117.142 172.842 116.488 172.31 116.005C171.777 115.522 171.015 115.28 170.023 115.28Z"/>
<path fill-rule="evenodd" clip-rule="evenodd" d="M1 119.41H70.0994V121.687H1V119.41Z"/>
<path fill-rule="evenodd" clip-rule="evenodd" d="M181.901 119.41H251V121.687H181.901V119.41Z"/>
</mask>
<path fill-rule="evenodd" clip-rule="evenodd" d="M100.841 6.76536V38.8289H126.22C128.424 38.8289 130.549 38.4148 132.573 37.5624C134.512 36.7466 136.269 35.6296 137.764 34.168C139.25 32.7151 140.396 31.0138 141.237 29.1332C142.123 27.1477 142.531 25.047 142.531 22.8823C142.531 20.7276 142.107 18.6497 141.236 16.672C140.389 14.7519 139.238 13.0091 137.755 11.5028C136.277 10.0021 134.529 8.85544 132.573 8.03214C130.549 7.17974 128.424 6.76536 126.22 6.76536H100.841ZM100.841 43.0765V67.7952H96.4969V2.51807H126.22C129.002 2.51807 131.695 3.03504 134.251 4.10674C136.737 5.14875 138.963 6.59939 140.875 8.46873C142.787 10.3381 144.273 12.5143 145.338 14.945C146.445 17.4717 146.963 20.1378 146.963 22.8823C146.963 25.6026 146.433 28.235 145.338 30.7346C144.276 33.1566 142.792 35.3233 140.871 37.1716C138.954 39.0165 136.725 40.4513 134.251 41.4878C131.695 42.5586 129.002 43.0765 126.22 43.0765H100.841Z" fill="#001749"/>
<path fill-rule="evenodd" clip-rule="evenodd" d="M43.3879 6.76536V38.8289H68.7664C70.9703 38.8289 73.0958 38.4148 75.1196 37.5624C77.0585 36.7466 78.8153 35.6296 80.3103 34.168C81.7964 32.7151 82.943 31.0138 83.7837 29.1332C84.67 27.1477 85.077 25.047 85.077 22.8823C85.077 20.7276 84.6532 18.6497 83.7822 16.672C82.9359 14.7519 81.7846 13.0091 80.3014 11.5028C78.8235 10.0021 77.0756 8.85544 75.1196 8.03214C73.0958 7.17974 70.9703 6.76536 68.7664 6.76536H43.3879ZM43.3879 43.0765V67.7952H39.0435V2.51807H68.7664C71.5483 2.51807 74.2415 3.03504 76.7977 4.10674C79.2831 5.14875 81.5099 6.59939 83.422 8.46873C85.3338 10.3381 86.8193 12.5143 87.8843 14.945C88.9914 17.4717 89.5093 20.1378 89.5093 22.8823C89.5093 25.6026 88.9799 28.235 87.8843 30.7346C86.8229 33.1566 85.3388 35.3233 83.4179 37.1716C81.5002 39.0165 79.2716 40.4513 76.7977 41.4878C74.2415 42.5586 71.5483 43.0765 68.7664 43.0765H43.3879Z" fill="#001749"/>
<path fill-rule="evenodd" clip-rule="evenodd" d="M208.713 55.5598V37.285H185.685V33.0285H212.957V57.1866L212.791 57.3766C209.561 61.0801 205.657 63.9734 201.183 66.0868C196.521 68.2882 191.542 69.3133 186.372 69.3133C181.687 69.3133 177.146 68.4424 172.847 66.61C168.716 64.8497 164.999 62.4231 161.815 59.2936C158.632 56.1641 156.162 52.51 154.372 48.451C152.507 44.2254 151.621 39.7625 151.621 35.1572C151.621 30.5508 152.507 26.0881 154.372 21.8625C156.162 17.8033 158.632 14.1491 161.815 11.0205C164.999 7.89102 168.717 5.4635 172.847 3.70414C177.146 1.87172 181.687 1 186.372 1C191.059 1 195.6 1.87172 199.899 3.70414C204.071 5.48198 207.802 7.94647 211.017 11.1057L211.503 11.5839L208.445 14.59L207.958 14.1122C205.158 11.3592 201.906 9.21899 198.266 7.67821C194.486 6.07767 190.486 5.34192 186.372 5.34192C182.285 5.34192 178.32 6.08835 174.566 7.67821C170.948 9.21032 167.702 11.3309 164.917 14.0689C162.132 16.8068 159.974 19.9955 158.415 23.5529C156.798 27.2428 156.038 31.1398 156.038 35.1572C156.038 39.1899 156.803 43.0976 158.416 46.8057C159.969 50.3767 162.124 53.5839 164.917 56.3299C167.703 59.0672 170.948 61.189 174.566 62.7214C178.32 64.3109 182.285 65.0574 186.372 65.0574C190.712 65.0574 194.907 64.2428 198.861 62.4705C202.598 60.7963 205.901 58.4944 208.713 55.5598Z" fill="#001749"/>
<path d="M2.90302 95.5989V105.248H1V81.9571H9.22449C11.6941 81.9571 13.5916 82.5837 14.9171 83.8369C16.2426 85.0903 16.9053 86.7261 16.9053 88.7447C16.9053 90.7411 16.203 92.3826 14.7982 93.6691C13.3934 94.9556 11.5356 95.5989 9.22449 95.5989H2.90302ZM9.29232 83.6871H2.90302V93.8686H9.29232C11.1278 93.8686 12.5382 93.4029 13.5237 92.4711C14.5093 91.5396 15.002 90.2973 15.002 88.7447C15.002 87.192 14.5093 85.9609 13.5237 85.0512C12.5382 84.1418 11.1278 83.6871 9.29232 83.6871ZM23.0567 95.5989V105.248H21.1537V81.9571H29.3782C31.8478 81.9571 33.7456 82.5837 35.0708 83.8369C36.3963 85.0903 37.0589 86.7261 37.0589 88.7447C37.0589 90.5859 36.4474 92.1385 35.2237 93.4029C34.0004 94.6673 32.3689 95.3882 30.33 95.5655L37.7389 105.248H35.2919L27.9848 95.5989H23.0567ZM29.4463 83.6871H23.0567V93.8686H29.4463C31.2815 93.8686 32.6919 93.4029 33.6774 92.4711C34.663 91.5396 35.1559 90.2973 35.1559 88.7447C35.1559 87.192 34.663 85.9609 33.6774 85.0512C32.6919 84.1418 31.2815 83.6871 29.4463 83.6871ZM41.8511 105.248V81.9571H43.7541V105.248H41.8511ZM51.503 82.0235L60.0674 94.8335L68.6319 82.0235H70.5352V105.248H68.6319V85.0182L60.5774 97.0297H59.5237L51.503 85.0182V105.248H49.6V82.0235H51.503ZM91.8782 103.518V105.248H76.3808V81.9571H91.5382V83.6871H78.2837V92.2716H90.5189V94.0016H78.2837V103.518H91.8782ZM106.73 95.5989V105.248H104.827V81.9571H113.051C115.521 81.9571 117.419 82.5837 118.744 83.8369C120.07 85.0903 120.732 86.7261 120.732 88.7447C120.732 90.7411 120.03 92.3826 118.625 93.6691C117.22 94.9556 115.363 95.5989 113.051 95.5989H106.73ZM113.119 83.6871H106.73V93.8686H113.119C114.955 93.8686 116.365 93.4029 117.351 92.4711C118.336 91.5396 118.829 90.2973 118.829 88.7447C118.829 87.192 118.336 85.9609 117.351 85.0512C116.365 84.1418 114.955 83.6871 113.119 83.6871ZM143.299 86.1658C141.328 84.1806 138.745 83.1881 135.55 83.1881C132.355 83.1881 129.772 84.1806 127.801 86.1658C125.83 88.1514 124.844 90.6302 124.844 93.6024C124.844 96.5971 125.83 99.0813 127.801 101.056C129.772 103.03 132.355 104.017 135.55 104.017C138.745 104.017 141.328 103.03 143.299 101.056C145.27 99.0813 146.256 96.5971 146.256 93.6024C146.256 90.6302 145.27 88.1514 143.299 86.1658ZM144.743 102.303C142.466 104.599 139.402 105.747 135.55 105.747C131.698 105.747 128.634 104.599 126.357 102.303C124.08 100.007 122.941 97.1073 122.941 93.6024C122.941 90.12 124.08 87.2253 126.357 84.9182C128.634 82.6113 131.698 81.4578 135.55 81.4578C139.402 81.4578 142.466 82.6113 144.743 84.9182C147.02 87.2253 148.159 90.12 148.159 93.6024C148.159 97.1073 147.02 100.007 144.743 102.303ZM152.611 105.248V81.9571H154.514V103.518H167.769V105.248H152.611ZM164.37 81.9571H166.477L174.498 94.8335L182.552 81.9571H184.626L175.449 96.6635V105.248H173.546V96.7302L164.37 81.9571ZM189.621 82.0235L198.186 94.8335L206.75 82.0235H208.654V105.248H206.75V85.0182L198.696 97.0297H197.642L189.621 85.0182V105.248H187.718V82.0235H189.621ZM229.997 103.518V105.248H214.499V81.9571H229.657V83.6871H216.402V92.2716H228.637V94.0016H216.402V103.518H229.997ZM236.318 95.5989V105.248H234.415V81.9571H242.639C245.109 81.9571 247.007 82.5837 248.332 83.8369C249.657 85.0903 250.32 86.7261 250.32 88.7447C250.32 90.5859 249.709 92.1385 248.485 93.4029C247.261 94.6673 245.63 95.3882 243.591 95.5655L251 105.248H248.553L241.246 95.5989H236.318ZM242.707 83.6871H236.318V93.8686H242.707C244.543 93.8686 245.953 93.4029 246.939 92.4711C247.924 91.5396 248.417 90.2973 248.417 88.7447C248.417 87.192 247.924 85.9609 246.939 85.0512C245.953 84.1418 244.543 83.6871 242.707 83.6871Z" fill="#001749"/>
<path d="M83.3353 121.467V120.548H89.5606V125.25C88.3119 126.417 86.6835 127 84.6759 127C82.5949 127 80.9391 126.39 79.7087 125.17C78.4786 123.951 77.8633 122.41 77.8633 120.548C77.8633 118.698 78.4786 117.16 79.7087 115.935C80.9391 114.709 82.5949 114.096 84.6759 114.096C86.1694 114.096 87.4611 114.426 88.5506 115.086L87.9628 115.917C87.0202 115.316 85.9246 115.016 84.6759 115.016C82.9499 115.016 81.5695 115.54 80.5351 116.589C79.5006 117.637 78.9833 118.957 78.9833 120.548C78.9833 122.139 79.5006 123.459 80.5351 124.508C81.5695 125.556 82.9499 126.081 84.6759 126.081C86.2551 126.081 87.565 125.627 88.6057 124.72V121.467H83.3353ZM101.551 121.609V126.735H100.522V114.362H104.966C106.301 114.362 107.326 114.694 108.042 115.36C108.758 116.026 109.116 116.895 109.116 117.967C109.116 118.945 108.786 119.77 108.125 120.442C107.463 121.114 106.582 121.497 105.48 121.591L109.483 126.735H108.161L104.213 121.609H101.551ZM105.003 115.28H101.551V120.69H105.003C105.994 120.69 106.757 120.442 107.289 119.947C107.822 119.452 108.088 118.792 108.088 117.967C108.088 117.142 107.822 116.488 107.289 116.005C106.757 115.522 105.994 115.28 105.003 115.28ZM130.618 116.598C129.553 115.543 128.158 115.016 126.432 115.016C124.706 115.016 123.31 115.543 122.245 116.598C121.18 117.652 120.647 118.969 120.647 120.548C120.647 122.139 121.18 123.459 122.245 124.508C123.31 125.556 124.706 126.081 126.432 126.081C128.158 126.081 129.553 125.556 130.618 124.508C131.683 123.459 132.216 122.139 132.216 120.548C132.216 118.969 131.683 117.652 130.618 116.598ZM131.399 125.17C130.168 126.39 128.513 127 126.432 127C124.351 127 122.695 126.39 121.464 125.17C120.234 123.951 119.619 122.41 119.619 120.548C119.619 118.698 120.234 117.16 121.464 115.935C122.695 114.709 124.351 114.096 126.432 114.096C128.513 114.096 130.168 114.709 131.399 115.935C132.629 117.16 133.244 118.698 133.244 120.548C133.244 122.41 132.629 123.951 131.399 125.17ZM144.316 122.546V114.362H145.344V122.546C145.344 123.559 145.681 124.402 146.354 125.073C147.028 125.745 147.915 126.081 149.017 126.081C150.119 126.081 151.006 125.745 151.68 125.073C152.353 124.402 152.69 123.559 152.69 122.546V114.362H153.718V122.546C153.718 123.83 153.296 124.894 152.451 125.736C151.606 126.579 150.462 127 149.017 127C147.572 127 146.428 126.579 145.583 125.736C144.738 124.894 144.316 123.83 144.316 122.546ZM166.571 121.609V126.735H165.543V114.362H169.987C171.321 114.362 172.346 114.694 173.062 115.36C173.779 116.026 174.137 116.895 174.137 117.967C174.137 119.028 173.757 119.9 172.998 120.584C172.239 121.267 171.235 121.609 169.987 121.609H166.571ZM170.023 115.28H166.571V120.69H170.023C171.015 120.69 171.777 120.442 172.31 119.947C172.842 119.452 173.108 118.792 173.108 117.967C173.108 117.142 172.842 116.488 172.31 116.005C171.777 115.522 171.015 115.28 170.023 115.28Z" fill="#001749"/>
<path fill-rule="evenodd" clip-rule="evenodd" d="M1 119.41H70.0994V121.687H1V119.41Z" fill="#001749"/>
<path fill-rule="evenodd" clip-rule="evenodd" d="M181.901 119.41H251V121.687H181.901V119.41Z" fill="#001749"/>
<path fill-rule="evenodd" clip-rule="evenodd" d="M100.841 6.76536V38.8289H126.22C128.424 38.8289 130.549 38.4148 132.573 37.5624C134.512 36.7466 136.269 35.6296 137.764 34.168C139.25 32.7151 140.396 31.0138 141.237 29.1332C142.123 27.1477 142.531 25.047 142.531 22.8823C142.531 20.7276 142.107 18.6497 141.236 16.672C140.389 14.7519 139.238 13.0091 137.755 11.5028C136.277 10.0021 134.529 8.85544 132.573 8.03214C130.549 7.17974 128.424 6.76536 126.22 6.76536H100.841ZM100.841 43.0765V67.7952H96.4969V2.51807H126.22C129.002 2.51807 131.695 3.03504 134.251 4.10674C136.737 5.14875 138.963 6.59939 140.875 8.46873C142.787 10.3381 144.273 12.5143 145.338 14.945C146.445 17.4717 146.963 20.1378 146.963 22.8823C146.963 25.6026 146.433 28.235 145.338 30.7346C144.276 33.1566 142.792 35.3233 140.871 37.1716C138.954 39.0165 136.725 40.4513 134.251 41.4878C131.695 42.5586 129.002 43.0765 126.22 43.0765H100.841Z" stroke="white" mask="url(#path-1-outside-1_1157_3175)"/>
<path fill-rule="evenodd" clip-rule="evenodd" d="M43.3879 6.76536V38.8289H68.7664C70.9703 38.8289 73.0958 38.4148 75.1196 37.5624C77.0585 36.7466 78.8153 35.6296 80.3103 34.168C81.7964 32.7151 82.943 31.0138 83.7837 29.1332C84.67 27.1477 85.077 25.047 85.077 22.8823C85.077 20.7276 84.6532 18.6497 83.7822 16.672C82.9359 14.7519 81.7846 13.0091 80.3014 11.5028C78.8235 10.0021 77.0756 8.85544 75.1196 8.03214C73.0958 7.17974 70.9703 6.76536 68.7664 6.76536H43.3879ZM43.3879 43.0765V67.7952H39.0435V2.51807H68.7664C71.5483 2.51807 74.2415 3.03504 76.7977 4.10674C79.2831 5.14875 81.5099 6.59939 83.422 8.46873C85.3338 10.3381 86.8193 12.5143 87.8843 14.945C88.9914 17.4717 89.5093 20.1378 89.5093 22.8823C89.5093 25.6026 88.9799 28.235 87.8843 30.7346C86.8229 33.1566 85.3388 35.3233 83.4179 37.1716C81.5002 39.0165 79.2716 40.4513 76.7977 41.4878C74.2415 42.5586 71.5483 43.0765 68.7664 43.0765H43.3879Z" stroke="white" mask="url(#path-1-outside-1_1157_3175)"/>
<path fill-rule="evenodd" clip-rule="evenodd" d="M208.713 55.5598V37.285H185.685V33.0285H212.957V57.1866L212.791 57.3766C209.561 61.0801 205.657 63.9734 201.183 66.0868C196.521 68.2882 191.542 69.3133 186.372 69.3133C181.687 69.3133 177.146 68.4424 172.847 66.61C168.716 64.8497 164.999 62.4231 161.815 59.2936C158.632 56.1641 156.162 52.51 154.372 48.451C152.507 44.2254 151.621 39.7625 151.621 35.1572C151.621 30.5508 152.507 26.0881 154.372 21.8625C156.162 17.8033 158.632 14.1491 161.815 11.0205C164.999 7.89102 168.717 5.4635 172.847 3.70414C177.146 1.87172 181.687 1 186.372 1C191.059 1 195.6 1.87172 199.899 3.70414C204.071 5.48198 207.802 7.94647 211.017 11.1057L211.503 11.5839L208.445 14.59L207.958 14.1122C205.158 11.3592 201.906 9.21899 198.266 7.67821C194.486 6.07767 190.486 5.34192 186.372 5.34192C182.285 5.34192 178.32 6.08835 174.566 7.67821C170.948 9.21032 167.702 11.3309 164.917 14.0689C162.132 16.8068 159.974 19.9955 158.415 23.5529C156.798 27.2428 156.038 31.1398 156.038 35.1572C156.038 39.1899 156.803 43.0976 158.416 46.8057C159.969 50.3767 162.124 53.5839 164.917 56.3299C167.703 59.0672 170.948 61.189 174.566 62.7214C178.32 64.3109 182.285 65.0574 186.372 65.0574C190.712 65.0574 194.907 64.2428 198.861 62.4705C202.598 60.7963 205.901 58.4944 208.713 55.5598Z" stroke="white" mask="url(#path-1-outside-1_1157_3175)"/>
<path d="M2.90302 95.5989V105.248H1V81.9571H9.22449C11.6941 81.9571 13.5916 82.5837 14.9171 83.8369C16.2426 85.0903 16.9053 86.7261 16.9053 88.7447C16.9053 90.7411 16.203 92.3826 14.7982 93.6691C13.3934 94.9556 11.5356 95.5989 9.22449 95.5989H2.90302ZM9.29232 83.6871H2.90302V93.8686H9.29232C11.1278 93.8686 12.5382 93.4029 13.5237 92.4711C14.5093 91.5396 15.002 90.2973 15.002 88.7447C15.002 87.192 14.5093 85.9609 13.5237 85.0512C12.5382 84.1418 11.1278 83.6871 9.29232 83.6871ZM23.0567 95.5989V105.248H21.1537V81.9571H29.3782C31.8478 81.9571 33.7456 82.5837 35.0708 83.8369C36.3963 85.0903 37.0589 86.7261 37.0589 88.7447C37.0589 90.5859 36.4474 92.1385 35.2237 93.4029C34.0004 94.6673 32.3689 95.3882 30.33 95.5655L37.7389 105.248H35.2919L27.9848 95.5989H23.0567ZM29.4463 83.6871H23.0567V93.8686H29.4463C31.2815 93.8686 32.6919 93.4029 33.6774 92.4711C34.663 91.5396 35.1559 90.2973 35.1559 88.7447C35.1559 87.192 34.663 85.9609 33.6774 85.0512C32.6919 84.1418 31.2815 83.6871 29.4463 83.6871ZM41.8511 105.248V81.9571H43.7541V105.248H41.8511ZM51.503 82.0235L60.0674 94.8335L68.6319 82.0235H70.5352V105.248H68.6319V85.0182L60.5774 97.0297H59.5237L51.503 85.0182V105.248H49.6V82.0235H51.503ZM91.8782 103.518V105.248H76.3808V81.9571H91.5382V83.6871H78.2837V92.2716H90.5189V94.0016H78.2837V103.518H91.8782ZM106.73 95.5989V105.248H104.827V81.9571H113.051C115.521 81.9571 117.419 82.5837 118.744 83.8369C120.07 85.0903 120.732 86.7261 120.732 88.7447C120.732 90.7411 120.03 92.3826 118.625 93.6691C117.22 94.9556 115.363 95.5989 113.051 95.5989H106.73ZM113.119 83.6871H106.73V93.8686H113.119C114.955 93.8686 116.365 93.4029 117.351 92.4711C118.336 91.5396 118.829 90.2973 118.829 88.7447C118.829 87.192 118.336 85.9609 117.351 85.0512C116.365 84.1418 114.955 83.6871 113.119 83.6871ZM143.299 86.1658C141.328 84.1806 138.745 83.1881 135.55 83.1881C132.355 83.1881 129.772 84.1806 127.801 86.1658C125.83 88.1514 124.844 90.6302 124.844 93.6024C124.844 96.5971 125.83 99.0813 127.801 101.056C129.772 103.03 132.355 104.017 135.55 104.017C138.745 104.017 141.328 103.03 143.299 101.056C145.27 99.0813 146.256 96.5971 146.256 93.6024C146.256 90.6302 145.27 88.1514 143.299 86.1658ZM144.743 102.303C142.466 104.599 139.402 105.747 135.55 105.747C131.698 105.747 128.634 104.599 126.357 102.303C124.08 100.007 122.941 97.1073 122.941 93.6024C122.941 90.12 124.08 87.2253 126.357 84.9182C128.634 82.6113 131.698 81.4578 135.55 81.4578C139.402 81.4578 142.466 82.6113 144.743 84.9182C147.02 87.2253 148.159 90.12 148.159 93.6024C148.159 97.1073 147.02 100.007 144.743 102.303ZM152.611 105.248V81.9571H154.514V103.518H167.769V105.248H152.611ZM164.37 81.9571H166.477L174.498 94.8335L182.552 81.9571H184.626L175.449 96.6635V105.248H173.546V96.7302L164.37 81.9571ZM189.621 82.0235L198.186 94.8335L206.75 82.0235H208.654V105.248H206.75V85.0182L198.696 97.0297H197.642L189.621 85.0182V105.248H187.718V82.0235H189.621ZM229.997 103.518V105.248H214.499V81.9571H229.657V83.6871H216.402V92.2716H228.637V94.0016H216.402V103.518H229.997ZM236.318 95.5989V105.248H234.415V81.9571H242.639C245.109 81.9571 247.007 82.5837 248.332 83.8369C249.657 85.0903 250.32 86.7261 250.32 88.7447C250.32 90.5859 249.709 92.1385 248.485 93.4029C247.261 94.6673 245.63 95.3882 243.591 95.5655L251 105.248H248.553L241.246 95.5989H236.318ZM242.707 83.6871H236.318V93.8686H242.707C244.543 93.8686 245.953 93.4029 246.939 92.4711C247.924 91.5396 248.417 90.2973 248.417 88.7447C248.417 87.192 247.924 85.9609 246.939 85.0512C245.953 84.1418 244.543 83.6871 242.707 83.6871Z" stroke="white" mask="url(#path-1-outside-1_1157_3175)"/>
<path d="M83.3353 121.467V120.548H89.5606V125.25C88.3119 126.417 86.6835 127 84.6759 127C82.5949 127 80.9391 126.39 79.7087 125.17C78.4786 123.951 77.8633 122.41 77.8633 120.548C77.8633 118.698 78.4786 117.16 79.7087 115.935C80.9391 114.709 82.5949 114.096 84.6759 114.096C86.1694 114.096 87.4611 114.426 88.5506 115.086L87.9628 115.917C87.0202 115.316 85.9246 115.016 84.6759 115.016C82.9499 115.016 81.5695 115.54 80.5351 116.589C79.5006 117.637 78.9833 118.957 78.9833 120.548C78.9833 122.139 79.5006 123.459 80.5351 124.508C81.5695 125.556 82.9499 126.081 84.6759 126.081C86.2551 126.081 87.565 125.627 88.6057 124.72V121.467H83.3353ZM101.551 121.609V126.735H100.522V114.362H104.966C106.301 114.362 107.326 114.694 108.042 115.36C108.758 116.026 109.116 116.895 109.116 117.967C109.116 118.945 108.786 119.77 108.125 120.442C107.463 121.114 106.582 121.497 105.48 121.591L109.483 126.735H108.161L104.213 121.609H101.551ZM105.003 115.28H101.551V120.69H105.003C105.994 120.69 106.757 120.442 107.289 119.947C107.822 119.452 108.088 118.792 108.088 117.967C108.088 117.142 107.822 116.488 107.289 116.005C106.757 115.522 105.994 115.28 105.003 115.28ZM130.618 116.598C129.553 115.543 128.158 115.016 126.432 115.016C124.706 115.016 123.31 115.543 122.245 116.598C121.18 117.652 120.647 118.969 120.647 120.548C120.647 122.139 121.18 123.459 122.245 124.508C123.31 125.556 124.706 126.081 126.432 126.081C128.158 126.081 129.553 125.556 130.618 124.508C131.683 123.459 132.216 122.139 132.216 120.548C132.216 118.969 131.683 117.652 130.618 116.598ZM131.399 125.17C130.168 126.39 128.513 127 126.432 127C124.351 127 122.695 126.39 121.464 125.17C120.234 123.951 119.619 122.41 119.619 120.548C119.619 118.698 120.234 117.16 121.464 115.935C122.695 114.709 124.351 114.096 126.432 114.096C128.513 114.096 130.168 114.709 131.399 115.935C132.629 117.16 133.244 118.698 133.244 120.548C133.244 122.41 132.629 123.951 131.399 125.17ZM144.316 122.546V114.362H145.344V122.546C145.344 123.559 145.681 124.402 146.354 125.073C147.028 125.745 147.915 126.081 149.017 126.081C150.119 126.081 151.006 125.745 151.68 125.073C152.353 124.402 152.69 123.559 152.69 122.546V114.362H153.718V122.546C153.718 123.83 153.296 124.894 152.451 125.736C151.606 126.579 150.462 127 149.017 127C147.572 127 146.428 126.579 145.583 125.736C144.738 124.894 144.316 123.83 144.316 122.546ZM166.571 121.609V126.735H165.543V114.362H169.987C171.321 114.362 172.346 114.694 173.062 115.36C173.779 116.026 174.137 116.895 174.137 117.967C174.137 119.028 173.757 119.9 172.998 120.584C172.239 121.267 171.235 121.609 169.987 121.609H166.571ZM170.023 115.28H166.571V120.69H170.023C171.015 120.69 171.777 120.442 172.31 119.947C172.842 119.452 173.108 118.792 173.108 117.967C173.108 117.142 172.842 116.488 172.31 116.005C171.777 115.522 171.015 115.28 170.023 115.28Z" stroke="white" mask="url(#path-1-outside-1_1157_3175)"/>
<path fill-rule="evenodd" clip-rule="evenodd" d="M1 119.41H70.0994V121.687H1V119.41Z" stroke="white" mask="url(#path-1-outside-1_1157_3175)"/>
<path fill-rule="evenodd" clip-rule="evenodd" d="M181.901 119.41H251V121.687H181.901V119.41Z" stroke="white" mask="url(#path-1-outside-1_1157_3175)"/>
</svg>
