<svg width="94" height="48" viewBox="0 0 94 48" fill="none" xmlns="http://www.w3.org/2000/svg">
<path fill-rule="evenodd" clip-rule="evenodd" d="M37.3806 2.19633V14.411H46.8824C47.7075 14.411 48.5032 14.2532 49.2609 13.9285C49.9868 13.6177 50.6446 13.1922 51.2043 12.6354C51.7607 12.0819 52.19 11.4338 52.5047 10.7174C52.8366 9.96104 52.9891 9.16076 52.9891 8.3361C52.9891 7.51529 52.8304 6.72369 52.5042 5.97028C52.1874 5.23883 51.7563 4.57489 51.201 4.00108C50.6477 3.42936 49.9934 2.99255 49.2609 2.67891C48.5032 2.35419 47.7075 2.19633 46.8824 2.19633H37.3806ZM37.3806 16.0291V25.4458H35.754V0.578313H46.8824C47.9238 0.578313 48.9322 0.775254 49.8892 1.18352C50.8198 1.58048 51.6535 2.1331 52.3693 2.84523C53.0852 3.55736 53.6413 4.38641 54.0402 5.31238C54.4547 6.27492 54.6484 7.29058 54.6484 8.3361C54.6484 9.37241 54.4503 10.3752 54.0402 11.3274C53.6427 12.2501 53.087 13.0756 52.3678 13.7797C51.6499 14.4825 50.8154 15.0291 49.8892 15.4239C48.9322 15.8319 47.9238 16.0291 46.8824 16.0291H37.3806Z" fill="#001749"/>
<path fill-rule="evenodd" clip-rule="evenodd" d="M15.87 2.19633V14.411H25.3717C26.1969 14.411 26.9927 14.2532 27.7504 13.9285C28.4763 13.6177 29.134 13.1922 29.6938 12.6354C30.2502 12.0819 30.6795 11.4338 30.9942 10.7174C31.326 9.96104 31.4784 9.16076 31.4784 8.3361C31.4784 7.51529 31.3198 6.72369 30.9936 5.97028C30.6768 5.23883 30.2458 4.57489 29.6904 4.00108C29.1371 3.42936 28.4827 2.99255 27.7504 2.67891C26.9927 2.35419 26.1969 2.19633 25.3717 2.19633H15.87ZM15.87 16.0291V25.4458H14.2435V0.578313H25.3717C26.4133 0.578313 27.4216 0.775254 28.3786 1.18352C29.3092 1.58048 30.1429 2.1331 30.8588 2.84523C31.5746 3.55736 32.1308 4.38641 32.5295 5.31238C32.944 6.27492 33.1379 7.29058 33.1379 8.3361C33.1379 9.37241 32.9397 10.3752 32.5295 11.3274C32.1321 12.2501 31.5764 13.0756 30.8573 13.7797C30.1393 14.4825 29.3049 15.0291 28.3786 15.4239C27.4216 15.8319 26.4133 16.0291 25.3717 16.0291H15.87Z" fill="#001749"/>
<path fill-rule="evenodd" clip-rule="evenodd" d="M77.7678 20.7847V13.8229H69.1459V12.2014H79.3565V21.4044L79.2945 21.4768C78.0854 22.8877 76.6237 23.9899 74.9484 24.795C73.2032 25.6336 71.339 26.0241 69.4034 26.0241C67.6492 26.0241 65.9491 25.6923 64.3395 24.9943C62.793 24.3237 61.401 23.3993 60.2093 22.2071C59.0175 21.0149 58.0925 19.6228 57.4223 18.0766C56.7243 16.4668 56.3925 14.7667 56.3925 13.0123C56.3925 11.2574 56.7243 9.55738 57.4223 7.94763C58.0925 6.40125 59.0175 5.00919 60.2093 3.81733C61.401 2.62515 62.7933 1.70038 64.3395 1.03015C65.9491 0.332085 67.6492 0 69.4034 0C71.1581 0 72.8581 0.332085 74.4677 1.03015C76.0297 1.70742 77.4267 2.64627 78.6304 3.84979L78.8125 4.03195L77.6674 5.17716L77.4852 4.99511C76.4367 3.94637 75.2191 3.13104 73.8565 2.54408C72.4411 1.93435 70.9435 1.65407 69.4034 1.65407C67.8732 1.65407 66.3887 1.93842 64.9832 2.54408C63.6286 3.12774 62.4133 3.93559 61.3707 4.97861C60.3277 6.02164 59.5197 7.23637 58.9361 8.59158C58.3307 9.99727 58.0464 11.4818 58.0464 13.0123C58.0464 14.5485 58.3328 16.0372 58.9366 17.4498C59.518 18.8102 60.3247 20.0319 61.3707 21.078C62.4136 22.1209 63.6284 22.9291 64.9832 23.5129C66.3887 24.1185 67.8732 24.4028 69.4034 24.4028C71.028 24.4028 72.5987 24.0925 74.0793 23.4173C75.4782 22.7795 76.7148 21.9026 77.7678 20.7847Z" fill="#001749"/>
<path d="M0.712492 36.0377V39.7135H0V30.8408H3.07925C4.00388 30.8408 4.71428 31.0795 5.21056 31.5569C5.70684 32.0344 5.95493 32.6576 5.95493 33.4265C5.95493 34.1871 5.69199 34.8124 5.16604 35.3025C4.64008 35.7926 3.94452 36.0377 3.07925 36.0377H0.712492ZM3.10465 31.4999H0.712492V35.3785H3.10465C3.79185 35.3785 4.31989 35.2011 4.68888 34.8461C5.05788 34.4913 5.24234 34.018 5.24234 33.4265C5.24234 32.835 5.05788 32.3661 4.68888 32.0195C4.31989 31.6731 3.79185 31.4999 3.10465 31.4999ZM8.25804 36.0377V39.7135H7.54555V30.8408H10.6248C11.5494 30.8408 12.2599 31.0795 12.7561 31.5569C13.2524 32.0344 13.5005 32.6576 13.5005 33.4265C13.5005 34.128 13.2715 34.7194 12.8134 35.2011C12.3553 35.6828 11.7445 35.9574 10.9811 36.025L13.755 39.7135H12.8389L10.1031 36.0377H8.25804ZM10.6503 31.4999H8.25804V35.3785H10.6503C11.3374 35.3785 11.8654 35.2011 12.2344 34.8461C12.6034 34.4913 12.788 34.018 12.788 33.4265C12.788 32.835 12.6034 32.3661 12.2344 32.0195C11.8654 31.6731 11.3374 31.4999 10.6503 31.4999ZM15.2947 39.7135V30.8408H16.0071V39.7135H15.2947ZM18.9083 30.8661L22.1148 35.7461L25.3214 30.8661H26.034V39.7135H25.3214V32.0069L22.3058 36.5827H21.9113L18.9083 32.0069V39.7135H18.1958V30.8661H18.9083ZM34.0248 39.0544V39.7135H28.2226V30.8408H33.8975V31.4999H28.935V34.7701H33.5159V35.4292H28.935V39.0544H34.0248ZM39.5853 36.0377V39.7135H38.8728V30.8408H41.9521C42.8767 30.8408 43.5871 31.0795 44.0834 31.5569C44.5797 32.0344 44.8277 32.6576 44.8277 33.4265C44.8277 34.1871 44.5648 34.8124 44.0389 35.3025C43.5129 35.7926 42.8173 36.0377 41.9521 36.0377H39.5853ZM41.9775 31.4999H39.5853V35.3785H41.9775C42.6647 35.3785 43.1927 35.2011 43.5617 34.8461C43.9307 34.4913 44.1151 34.018 44.1151 33.4265C44.1151 32.835 43.9307 32.3661 43.5617 32.0195C43.1927 31.6731 42.6647 31.4999 41.9775 31.4999ZM53.2767 32.4441C52.5387 31.6878 51.5717 31.3098 50.3755 31.3098C49.1794 31.3098 48.2123 31.6878 47.4743 32.4441C46.7364 33.2005 46.3674 34.1448 46.3674 35.2771C46.3674 36.4179 46.7364 37.3643 47.4743 38.1164C48.2123 38.8685 49.1794 39.2446 50.3755 39.2446C51.5717 39.2446 52.5387 38.8685 53.2767 38.1164C54.0147 37.3643 54.3837 36.4179 54.3837 35.2771C54.3837 34.1448 54.0147 33.2005 53.2767 32.4441ZM53.8175 38.5918C52.965 39.4664 51.8177 39.9036 50.3755 39.9036C48.9334 39.9036 47.7861 39.4664 46.9336 38.5918C46.081 37.7171 45.6548 36.6123 45.6548 35.2771C45.6548 33.9505 46.081 32.8477 46.9336 31.9688C47.7861 31.09 48.9334 30.6506 50.3755 30.6506C51.8177 30.6506 52.965 31.09 53.8175 31.9688C54.67 32.8477 55.0963 33.9505 55.0963 35.2771C55.0963 36.6123 54.67 37.7171 53.8175 38.5918ZM56.7632 39.7135V30.8408H57.4757V39.0544H62.4381V39.7135H56.7632ZM61.1657 30.8408H61.9546L64.9576 35.7461L67.9732 30.8408H68.7494L65.3138 36.4432V39.7135H64.6013V36.4686L61.1657 30.8408ZM70.6199 30.8661L73.8264 35.7461L77.0329 30.8661H77.7455V39.7135H77.0329V32.0069L74.0173 36.5827H73.6228L70.6199 32.0069V39.7135H69.9074V30.8661H70.6199ZM85.7364 39.0544V39.7135H79.9341V30.8408H85.6091V31.4999H80.6466V34.7701H85.2274V35.4292H80.6466V39.0544H85.7364ZM88.103 36.0377V39.7135H87.3905V30.8408H90.4697C91.3944 30.8408 92.1049 31.0795 92.6011 31.5569C93.0973 32.0344 93.3454 32.6576 93.3454 33.4265C93.3454 34.128 93.1165 34.7194 92.6583 35.2011C92.2003 35.6828 91.5895 35.9574 90.8261 36.025L93.6 39.7135H92.6838L89.9481 36.0377H88.103ZM90.4952 31.4999H88.103V35.3785H90.4952C91.1823 35.3785 91.7104 35.2011 92.0794 34.8461C92.4484 34.4913 92.6329 34.018 92.6329 33.4265C92.6329 32.835 92.4484 32.3661 92.0794 32.0195C91.7104 31.6731 91.1823 31.4999 90.4952 31.4999Z" fill="#001749"/>
<path d="M30.8263 45.8923V45.5421H33.1571V47.3334C32.6896 47.7778 32.0799 48 31.3283 48C30.5491 48 29.9292 47.7677 29.4685 47.303C29.008 46.8384 28.7776 46.2514 28.7776 45.5421C28.7776 44.8374 29.008 44.2515 29.4685 43.7846C29.9292 43.3177 30.5491 43.0843 31.3283 43.0843C31.8874 43.0843 32.371 43.21 32.7789 43.4614L32.5589 43.7779C32.206 43.5489 31.7958 43.4345 31.3283 43.4345C30.6821 43.4345 30.1652 43.6343 29.7779 44.0337C29.3906 44.4333 29.1969 44.9361 29.1969 45.5421C29.1969 46.1482 29.3906 46.651 29.7779 47.0505C30.1652 47.4501 30.6821 47.6498 31.3283 47.6498C31.9195 47.6498 32.41 47.477 32.7996 47.1313V45.8923H30.8263ZM37.6462 45.9462V47.899H37.2612V43.1854H38.9249C39.4245 43.1854 39.8084 43.3121 40.0765 43.5658C40.3446 43.8194 40.4787 44.1505 40.4787 44.559C40.4787 44.9316 40.355 45.2459 40.1074 45.5017C39.8599 45.7577 39.53 45.9035 39.1174 45.9394L40.6162 47.899H40.1212L38.6431 45.9462H37.6462ZM38.9387 43.5354H37.6462V45.596H38.9387C39.3099 45.596 39.5953 45.5017 39.7946 45.3132C39.994 45.1246 40.0938 44.8732 40.0938 44.559C40.0938 44.2447 39.994 43.9956 39.7946 43.8116C39.5953 43.6275 39.3099 43.5354 38.9387 43.5354ZM48.5291 44.0372C48.1303 43.6354 47.6079 43.4345 46.9616 43.4345C46.3154 43.4345 45.7929 43.6354 45.3941 44.0372C44.9953 44.4389 44.796 44.9406 44.796 45.5421C44.796 46.1482 44.9953 46.651 45.3941 47.0505C45.7929 47.4501 46.3154 47.6498 46.9616 47.6498C47.6079 47.6498 48.1303 47.4501 48.5291 47.0505C48.9279 46.651 49.1273 46.1482 49.1273 45.5421C49.1273 44.9406 48.9279 44.4389 48.5291 44.0372ZM48.8213 47.303C48.3607 47.7677 47.7408 48 46.9616 48C46.1825 48 45.5625 47.7677 45.1019 47.303C44.6413 46.8384 44.411 46.2514 44.411 45.5421C44.411 44.8374 44.6413 44.2515 45.1019 43.7846C45.5625 43.3177 46.1825 43.0843 46.9616 43.0843C47.7408 43.0843 48.3607 43.3177 48.8213 43.7846C49.282 44.2515 49.5123 44.8374 49.5123 45.5421C49.5123 46.2514 49.282 46.8384 48.8213 47.303ZM53.6576 46.3031V43.1854H54.0426V46.3031C54.0426 46.6891 54.1687 47.0101 54.4207 47.266C54.6728 47.5219 55.0051 47.6498 55.4176 47.6498C55.8302 47.6498 56.1624 47.5219 56.4145 47.266C56.6666 47.0101 56.7926 46.6891 56.7926 46.3031V43.1854H57.1776V46.3031C57.1776 46.7924 57.0195 47.1976 56.7033 47.5186C56.387 47.8395 55.9584 48 55.4176 48C54.8767 48 54.4482 47.8395 54.1319 47.5186C53.8156 47.1976 53.6576 46.7924 53.6576 46.3031ZM61.9898 45.9462V47.899H61.6048V43.1854H63.2686C63.7682 43.1854 64.152 43.3121 64.4202 43.5658C64.6883 43.8194 64.8224 44.1505 64.8224 44.559C64.8224 44.963 64.6803 45.2952 64.3961 45.5556C64.1119 45.816 63.7361 45.9462 63.2686 45.9462H61.9898ZM63.2823 43.5354H61.9898V45.596H63.2823C63.6536 45.596 63.9389 45.5017 64.1383 45.3132C64.3377 45.1246 64.4374 44.8732 64.4374 44.559C64.4374 44.2447 64.3377 43.9956 64.1383 43.8116C63.9389 43.6275 63.6536 43.5354 63.2823 43.5354Z" fill="#001749"/>
<path fill-rule="evenodd" clip-rule="evenodd" d="M0 45.1084H25.8708V45.9759H0V45.1084Z" fill="#001749"/>
<path fill-rule="evenodd" clip-rule="evenodd" d="M67.7292 45.1084H93.6V45.9759H67.7292V45.1084Z" fill="#001749"/>
</svg>
